<mxfile host="app.diagrams.net" agent="Mozilla/5.0 (Windows NT 10.0; Win64; x64) AppleWebKit/537.36 (KHTML, like Gecko) Chrome/135.0.0.0 Safari/537.36" version="26.1.0">
  <diagram name="Page-1" id="yYxZ21CGx96Y1JNt2WwX">
    <mxGraphModel dx="1434" dy="738" grid="1" gridSize="10" guides="1" tooltips="1" connect="1" arrows="1" fold="1" page="1" pageScale="1" pageWidth="827" pageHeight="1169" math="0" shadow="0">
      <root>
        <mxCell id="0" />
        <mxCell id="1" parent="0" />
        <mxCell id="0MLY_q0pApqpUEPfaXY_-2" value="scènes" style="swimlane;fontStyle=0;childLayout=stackLayout;horizontal=1;startSize=26;fillColor=none;horizontalStack=0;resizeParent=1;resizeParentMax=0;resizeLast=0;collapsible=1;marginBottom=0;html=1;" vertex="1" parent="1">
          <mxGeometry x="340" y="290" width="310" height="156" as="geometry" />
        </mxCell>
        <mxCell id="0MLY_q0pApqpUEPfaXY_-6" value="id: INT IDENTITY PK" style="text;strokeColor=none;fillColor=none;align=left;verticalAlign=top;spacingLeft=4;spacingRight=4;overflow=hidden;rotatable=0;points=[[0,0.5],[1,0.5]];portConstraint=eastwest;whiteSpace=wrap;html=1;" vertex="1" parent="0MLY_q0pApqpUEPfaXY_-2">
          <mxGeometry y="26" width="310" height="26" as="geometry" />
        </mxCell>
        <mxCell id="0MLY_q0pApqpUEPfaXY_-3" value="description: VARCHAR(200)&amp;nbsp; NOT NULL" style="text;strokeColor=none;fillColor=none;align=left;verticalAlign=top;spacingLeft=4;spacingRight=4;overflow=hidden;rotatable=0;points=[[0,0.5],[1,0.5]];portConstraint=eastwest;whiteSpace=wrap;html=1;" vertex="1" parent="0MLY_q0pApqpUEPfaXY_-2">
          <mxGeometry y="52" width="310" height="26" as="geometry" />
        </mxCell>
        <mxCell id="0MLY_q0pApqpUEPfaXY_-4" value="duree_minute: INT&amp;nbsp; CHECK &amp;gt; 0" style="text;strokeColor=none;fillColor=none;align=left;verticalAlign=top;spacingLeft=4;spacingRight=4;overflow=hidden;rotatable=0;points=[[0,0.5],[1,0.5]];portConstraint=eastwest;whiteSpace=wrap;html=1;" vertex="1" parent="0MLY_q0pApqpUEPfaXY_-2">
          <mxGeometry y="78" width="310" height="26" as="geometry" />
        </mxCell>
        <mxCell id="0MLY_q0pApqpUEPfaXY_-12" value="date: DATE&amp;nbsp;" style="text;strokeColor=none;fillColor=none;align=left;verticalAlign=top;spacingLeft=4;spacingRight=4;overflow=hidden;rotatable=0;points=[[0,0.5],[1,0.5]];portConstraint=eastwest;whiteSpace=wrap;html=1;" vertex="1" parent="0MLY_q0pApqpUEPfaXY_-2">
          <mxGeometry y="104" width="310" height="26" as="geometry" />
        </mxCell>
        <mxCell id="0MLY_q0pApqpUEPfaXY_-5" value="id_lieu NOT NULL" style="text;strokeColor=none;fillColor=none;align=left;verticalAlign=top;spacingLeft=4;spacingRight=4;overflow=hidden;rotatable=0;points=[[0,0.5],[1,0.5]];portConstraint=eastwest;whiteSpace=wrap;html=1;" vertex="1" parent="0MLY_q0pApqpUEPfaXY_-2">
          <mxGeometry y="130" width="310" height="26" as="geometry" />
        </mxCell>
        <mxCell id="0MLY_q0pApqpUEPfaXY_-7" value="lieux" style="swimlane;fontStyle=0;childLayout=stackLayout;horizontal=1;startSize=26;fillColor=none;horizontalStack=0;resizeParent=1;resizeParentMax=0;resizeLast=0;collapsible=1;marginBottom=0;html=1;" vertex="1" parent="1">
          <mxGeometry x="200" y="582" width="310" height="130" as="geometry" />
        </mxCell>
        <mxCell id="0MLY_q0pApqpUEPfaXY_-8" value="id: INT IDENTITY PK" style="text;strokeColor=none;fillColor=none;align=left;verticalAlign=top;spacingLeft=4;spacingRight=4;overflow=hidden;rotatable=0;points=[[0,0.5],[1,0.5]];portConstraint=eastwest;whiteSpace=wrap;html=1;" vertex="1" parent="0MLY_q0pApqpUEPfaXY_-7">
          <mxGeometry y="26" width="310" height="26" as="geometry" />
        </mxCell>
        <mxCell id="0MLY_q0pApqpUEPfaXY_-32" value="code: VARCHAR(50) UNIQUE" style="text;strokeColor=none;fillColor=none;align=left;verticalAlign=top;spacingLeft=4;spacingRight=4;overflow=hidden;rotatable=0;points=[[0,0.5],[1,0.5]];portConstraint=eastwest;whiteSpace=wrap;html=1;" vertex="1" parent="0MLY_q0pApqpUEPfaXY_-7">
          <mxGeometry y="52" width="310" height="26" as="geometry" />
        </mxCell>
        <mxCell id="0MLY_q0pApqpUEPfaXY_-9" value="adresse_complete: VARCHAR(500)" style="text;strokeColor=none;fillColor=none;align=left;verticalAlign=top;spacingLeft=4;spacingRight=4;overflow=hidden;rotatable=0;points=[[0,0.5],[1,0.5]];portConstraint=eastwest;whiteSpace=wrap;html=1;" vertex="1" parent="0MLY_q0pApqpUEPfaXY_-7">
          <mxGeometry y="78" width="310" height="26" as="geometry" />
        </mxCell>
        <mxCell id="0MLY_q0pApqpUEPfaXY_-10" value="type_lieu: VARCHAR(100)" style="text;strokeColor=none;fillColor=none;align=left;verticalAlign=top;spacingLeft=4;spacingRight=4;overflow=hidden;rotatable=0;points=[[0,0.5],[1,0.5]];portConstraint=eastwest;whiteSpace=wrap;html=1;" vertex="1" parent="0MLY_q0pApqpUEPfaXY_-7">
          <mxGeometry y="104" width="310" height="26" as="geometry" />
        </mxCell>
        <mxCell id="0MLY_q0pApqpUEPfaXY_-15" value="" style="endArrow=none;html=1;rounded=0;entryX=0.155;entryY=0.923;entryDx=0;entryDy=0;entryPerimeter=0;" edge="1" parent="1" source="0MLY_q0pApqpUEPfaXY_-7" target="0MLY_q0pApqpUEPfaXY_-5">
          <mxGeometry relative="1" as="geometry">
            <mxPoint x="50" y="630" as="sourcePoint" />
            <mxPoint x="210" y="630" as="targetPoint" />
          </mxGeometry>
        </mxCell>
        <mxCell id="0MLY_q0pApqpUEPfaXY_-16" value="0..*" style="text;html=1;align=center;verticalAlign=middle;resizable=0;points=[];autosize=1;strokeColor=none;fillColor=none;" vertex="1" parent="1">
          <mxGeometry x="384" y="446" width="40" height="30" as="geometry" />
        </mxCell>
        <mxCell id="0MLY_q0pApqpUEPfaXY_-17" value="1" style="text;html=1;align=center;verticalAlign=middle;resizable=0;points=[];autosize=1;strokeColor=none;fillColor=none;" vertex="1" parent="1">
          <mxGeometry x="384" y="552" width="30" height="30" as="geometry" />
        </mxCell>
        <mxCell id="0MLY_q0pApqpUEPfaXY_-18" value="acteurs" style="swimlane;fontStyle=0;childLayout=stackLayout;horizontal=1;startSize=26;fillColor=none;horizontalStack=0;resizeParent=1;resizeParentMax=0;resizeLast=0;collapsible=1;marginBottom=0;html=1;" vertex="1" parent="1">
          <mxGeometry x="780" y="538" width="310" height="104" as="geometry" />
        </mxCell>
        <mxCell id="0MLY_q0pApqpUEPfaXY_-19" value="id: INT IDENTITY PK" style="text;strokeColor=none;fillColor=none;align=left;verticalAlign=top;spacingLeft=4;spacingRight=4;overflow=hidden;rotatable=0;points=[[0,0.5],[1,0.5]];portConstraint=eastwest;whiteSpace=wrap;html=1;" vertex="1" parent="0MLY_q0pApqpUEPfaXY_-18">
          <mxGeometry y="26" width="310" height="26" as="geometry" />
        </mxCell>
        <mxCell id="0MLY_q0pApqpUEPfaXY_-20" value="nom: VARCHAR(100)" style="text;strokeColor=none;fillColor=none;align=left;verticalAlign=top;spacingLeft=4;spacingRight=4;overflow=hidden;rotatable=0;points=[[0,0.5],[1,0.5]];portConstraint=eastwest;whiteSpace=wrap;html=1;" vertex="1" parent="0MLY_q0pApqpUEPfaXY_-18">
          <mxGeometry y="52" width="310" height="26" as="geometry" />
        </mxCell>
        <mxCell id="0MLY_q0pApqpUEPfaXY_-21" value="role: VARCHAR(100)" style="text;strokeColor=none;fillColor=none;align=left;verticalAlign=top;spacingLeft=4;spacingRight=4;overflow=hidden;rotatable=0;points=[[0,0.5],[1,0.5]];portConstraint=eastwest;whiteSpace=wrap;html=1;" vertex="1" parent="0MLY_q0pApqpUEPfaXY_-18">
          <mxGeometry y="78" width="310" height="26" as="geometry" />
        </mxCell>
        <mxCell id="0MLY_q0pApqpUEPfaXY_-22" value="acteurs_scène" style="swimlane;fontStyle=0;childLayout=stackLayout;horizontal=1;startSize=26;fillColor=none;horizontalStack=0;resizeParent=1;resizeParentMax=0;resizeLast=0;collapsible=1;marginBottom=0;html=1;" vertex="1" parent="1">
          <mxGeometry x="780" y="290" width="310" height="130" as="geometry" />
        </mxCell>
        <mxCell id="0MLY_q0pApqpUEPfaXY_-23" value="id: INT IDENTITY PK" style="text;strokeColor=none;fillColor=none;align=left;verticalAlign=top;spacingLeft=4;spacingRight=4;overflow=hidden;rotatable=0;points=[[0,0.5],[1,0.5]];portConstraint=eastwest;whiteSpace=wrap;html=1;" vertex="1" parent="0MLY_q0pApqpUEPfaXY_-22">
          <mxGeometry y="26" width="310" height="26" as="geometry" />
        </mxCell>
        <mxCell id="0MLY_q0pApqpUEPfaXY_-24" value="id_acteur: INT NOT NULL" style="text;strokeColor=none;fillColor=none;align=left;verticalAlign=top;spacingLeft=4;spacingRight=4;overflow=hidden;rotatable=0;points=[[0,0.5],[1,0.5]];portConstraint=eastwest;whiteSpace=wrap;html=1;" vertex="1" parent="0MLY_q0pApqpUEPfaXY_-22">
          <mxGeometry y="52" width="310" height="26" as="geometry" />
        </mxCell>
        <mxCell id="0MLY_q0pApqpUEPfaXY_-25" value="id_scene: INT NOT NULL" style="text;strokeColor=none;fillColor=none;align=left;verticalAlign=top;spacingLeft=4;spacingRight=4;overflow=hidden;rotatable=0;points=[[0,0.5],[1,0.5]];portConstraint=eastwest;whiteSpace=wrap;html=1;" vertex="1" parent="0MLY_q0pApqpUEPfaXY_-22">
          <mxGeometry y="78" width="310" height="26" as="geometry" />
        </mxCell>
        <mxCell id="0MLY_q0pApqpUEPfaXY_-33" value="UNIQUE(id_acteur, id_scene)" style="text;strokeColor=none;fillColor=none;align=left;verticalAlign=top;spacingLeft=4;spacingRight=4;overflow=hidden;rotatable=0;points=[[0,0.5],[1,0.5]];portConstraint=eastwest;whiteSpace=wrap;html=1;" vertex="1" parent="0MLY_q0pApqpUEPfaXY_-22">
          <mxGeometry y="104" width="310" height="26" as="geometry" />
        </mxCell>
        <mxCell id="0MLY_q0pApqpUEPfaXY_-26" value="" style="endArrow=none;html=1;rounded=0;exitX=0.5;exitY=0.019;exitDx=0;exitDy=0;exitPerimeter=0;entryX=0.345;entryY=0.962;entryDx=0;entryDy=0;entryPerimeter=0;" edge="1" parent="1" source="0MLY_q0pApqpUEPfaXY_-18" target="0MLY_q0pApqpUEPfaXY_-33">
          <mxGeometry relative="1" as="geometry">
            <mxPoint x="971" y="480" as="sourcePoint" />
            <mxPoint x="960" y="394" as="targetPoint" />
          </mxGeometry>
        </mxCell>
        <mxCell id="0MLY_q0pApqpUEPfaXY_-27" value="" style="endArrow=none;html=1;rounded=0;exitX=1.003;exitY=-0.154;exitDx=0;exitDy=0;exitPerimeter=0;entryX=0;entryY=0.192;entryDx=0;entryDy=0;entryPerimeter=0;" edge="1" parent="1" source="0MLY_q0pApqpUEPfaXY_-4" target="0MLY_q0pApqpUEPfaXY_-24">
          <mxGeometry relative="1" as="geometry">
            <mxPoint x="763" y="539" as="sourcePoint" />
            <mxPoint x="740" y="394" as="targetPoint" />
          </mxGeometry>
        </mxCell>
        <mxCell id="0MLY_q0pApqpUEPfaXY_-28" value="&lt;font style=&quot;font-size: 15px;&quot;&gt;*&lt;/font&gt;" style="text;html=1;align=center;verticalAlign=middle;resizable=0;points=[];autosize=1;strokeColor=none;fillColor=none;" vertex="1" parent="1">
          <mxGeometry x="890" y="420" width="30" height="30" as="geometry" />
        </mxCell>
        <mxCell id="0MLY_q0pApqpUEPfaXY_-29" value="1" style="text;html=1;align=center;verticalAlign=middle;resizable=0;points=[];autosize=1;strokeColor=none;fillColor=none;" vertex="1" parent="1">
          <mxGeometry x="940" y="508" width="30" height="30" as="geometry" />
        </mxCell>
        <mxCell id="0MLY_q0pApqpUEPfaXY_-30" value="&lt;font style=&quot;font-size: 15px;&quot;&gt;*&lt;/font&gt;" style="text;html=1;align=center;verticalAlign=middle;resizable=0;points=[];autosize=1;strokeColor=none;fillColor=none;" vertex="1" parent="1">
          <mxGeometry x="750" y="327" width="30" height="30" as="geometry" />
        </mxCell>
        <mxCell id="0MLY_q0pApqpUEPfaXY_-31" value="1" style="text;html=1;align=center;verticalAlign=middle;resizable=0;points=[];autosize=1;strokeColor=none;fillColor=none;" vertex="1" parent="1">
          <mxGeometry x="650" y="330" width="30" height="30" as="geometry" />
        </mxCell>
      </root>
    </mxGraphModel>
  </diagram>
</mxfile>
